<svg width="450" height="141" viewBox="0 0 450 141" fill="none" xmlns="http://www.w3.org/2000/svg">
<g clip-path="url(#clip0_5007_4792)">
<path d="M94.0844 46.3315L0 140.433V46.3315H94.0844Z" fill="#FDE580"/>
<path d="M94.0844 0L0 94.1013V0H94.0844Z" fill="#FCD42C"/>
<path d="M109.77 115.298V116.364H118.026V115.298H109.77ZM110.396 111.886V112.966H118.666V111.886H110.396ZM112.641 109.32L112.216 111.886L112.039 112.966L111.657 115.298L111.48 116.364L111.055 118.944H112.264L112.689 116.364L112.866 115.298L113.248 112.966L113.425 111.886L113.85 109.32H112.641ZM116.11 109.32L115.685 111.886L115.508 112.966L115.126 115.298L114.949 116.364L114.524 118.944H115.718L116.143 116.364L116.32 115.298L116.702 112.966L116.879 111.886L117.304 109.32H116.11Z" fill="#5F6368"/>
<path d="M122.178 109.32C122.039 109.507 121.853 109.693 121.609 109.884C121.366 110.071 121.098 110.252 120.807 110.415C120.515 110.577 120.233 110.716 119.961 110.826C119.689 110.931 119.45 111.002 119.249 111.031L119.54 112.388C119.99 112.293 120.424 112.125 120.845 111.901C121.265 111.676 121.643 111.399 121.977 111.079C121.968 111.313 121.958 111.533 121.958 111.743C121.953 111.953 121.948 112.154 121.948 112.35V118.958H123.496V109.33H122.183L122.178 109.32Z" fill="#5F6368"/>
<path d="M137.682 110.721C137.4 110.271 137.008 109.927 136.506 109.684C136.005 109.44 135.412 109.32 134.72 109.32H131.017V118.949H132.579V115.36H134.724C135.417 115.36 136.01 115.241 136.511 114.997C137.013 114.753 137.405 114.409 137.687 113.955C137.968 113.502 138.112 112.966 138.112 112.345C138.112 111.724 137.968 111.174 137.687 110.725L137.682 110.721ZM136 113.588C135.675 113.874 135.169 114.018 134.476 114.018H132.579V110.649H134.476C135.169 110.649 135.675 110.792 136 111.079C136.325 111.366 136.487 111.786 136.487 112.34C136.487 112.895 136.325 113.301 136 113.588Z" fill="#5F6368"/>
<path d="M146.244 112.704C146 112.302 145.675 112.006 145.259 111.805C144.848 111.605 144.38 111.504 143.869 111.504C143.358 111.504 142.904 111.609 142.488 111.815C142.077 112.025 141.748 112.359 141.504 112.813V108.365H139.942V118.939H141.504V115.088C141.504 114.524 141.604 114.075 141.805 113.74C142.006 113.406 142.259 113.162 142.565 113.009C142.87 112.856 143.181 112.785 143.492 112.785C143.941 112.785 144.313 112.923 144.605 113.205C144.901 113.487 145.049 113.989 145.049 114.71V118.939H146.611V114.214C146.611 113.597 146.492 113.095 146.248 112.694L146.244 112.704Z" fill="#5F6368"/>
<path d="M155.288 117.898C154.92 117.898 154.734 117.716 154.734 117.358V114.061C154.734 113.487 154.605 113.014 154.352 112.637C154.098 112.264 153.75 111.982 153.3 111.791C152.851 111.6 152.335 111.509 151.752 111.509C150.897 111.509 150.195 111.691 149.655 112.049C149.11 112.412 148.752 112.885 148.575 113.478L149.875 114.032C150.013 113.564 150.233 113.234 150.544 113.033C150.854 112.833 151.236 112.732 151.681 112.732C152.168 112.732 152.541 112.866 152.794 113.134C153.052 113.401 153.181 113.779 153.181 114.266V114.548L150.587 115.055C149.937 115.179 149.43 115.423 149.072 115.776C148.709 116.13 148.532 116.579 148.532 117.124C148.532 117.554 148.637 117.912 148.852 118.208C149.067 118.505 149.354 118.724 149.722 118.873C150.085 119.021 150.491 119.092 150.94 119.092C151.299 119.092 151.657 119.03 152.02 118.911C152.378 118.791 152.694 118.605 152.966 118.356C153.085 118.251 153.186 118.132 153.267 117.998C153.3 118.141 153.353 118.27 153.425 118.385C153.568 118.614 153.759 118.787 154.008 118.896C154.256 119.011 154.533 119.064 154.848 119.064C155.202 119.064 155.484 119.006 155.708 118.887L155.78 117.821C155.622 117.869 155.46 117.893 155.283 117.893L155.288 117.898ZM153.191 116.292C153.191 116.565 153.138 116.803 153.038 117.004C152.937 117.21 152.794 117.377 152.617 117.515C152.436 117.654 152.235 117.75 152.01 117.816C151.786 117.879 151.552 117.912 151.308 117.912C150.921 117.912 150.62 117.826 150.405 117.649C150.19 117.472 150.085 117.248 150.085 116.975C150.085 116.703 150.19 116.469 150.396 116.302C150.606 116.134 150.921 116.01 151.351 115.924L153.191 115.547V116.287V116.292ZM152.574 108.198H150.998L149.378 110.62H150.615L151.781 109.077L152.947 110.62H154.184L152.565 108.198H152.574ZM154.194 106.869H152.823L153.96 108.972H155.04L154.194 106.869Z" fill="#5F6368"/>
<path d="M163.587 112.704C163.343 112.302 163.014 112.006 162.603 111.805C162.187 111.604 161.724 111.504 161.208 111.504C160.806 111.504 160.434 111.566 160.075 111.695C159.722 111.824 159.411 112.025 159.158 112.302C158.991 112.479 158.852 112.684 158.738 112.919L158.671 111.652H157.285V118.944H158.847V115.064C158.847 114.51 158.948 114.07 159.144 113.736C159.344 113.406 159.593 113.162 159.894 113.014C160.195 112.861 160.505 112.79 160.826 112.79C161.275 112.79 161.647 112.928 161.944 113.205C162.24 113.482 162.388 113.979 162.388 114.701V118.949H163.95V114.223C163.95 113.607 163.826 113.105 163.587 112.704Z" fill="#5F6368"/>
<path d="M182.153 112.689C181.9 112.288 181.571 111.992 181.165 111.8C180.754 111.604 180.319 111.509 179.851 111.509C179.53 111.509 179.206 111.561 178.871 111.662C178.541 111.762 178.24 111.92 177.968 112.135C177.696 112.35 177.481 112.618 177.328 112.938C177.103 112.46 176.774 112.101 176.329 111.863C175.89 111.624 175.402 111.504 174.877 111.504C174.399 111.504 173.95 111.614 173.53 111.839C173.109 112.063 172.77 112.407 172.517 112.876L172.445 111.652H171.059V118.944H172.622V115.064C172.622 114.519 172.717 114.084 172.913 113.75C173.109 113.42 173.353 113.177 173.644 113.019C173.936 112.861 174.227 112.785 174.519 112.785C174.958 112.785 175.316 112.914 175.598 113.177C175.88 113.439 176.024 113.869 176.024 114.462V118.939H177.586V114.973C177.586 114.495 177.672 114.094 177.849 113.769C178.025 113.444 178.255 113.196 178.541 113.033C178.828 112.866 179.143 112.785 179.483 112.785C179.922 112.785 180.281 112.914 180.562 113.177C180.844 113.439 180.988 113.869 180.988 114.462V118.939H182.55V114.214C182.55 113.588 182.421 113.081 182.168 112.68L182.153 112.689Z" fill="#5F6368"/>
<path d="M190.978 113.172C190.978 113.172 190.969 113.153 190.964 113.143C190.701 112.637 190.319 112.24 189.827 111.949C189.33 111.657 188.728 111.509 188.016 111.509C187.304 111.509 186.697 111.662 186.157 111.963C185.617 112.264 185.197 112.699 184.886 113.267C184.581 113.836 184.428 114.515 184.428 115.303C184.428 116.091 184.581 116.77 184.886 117.339C185.192 117.907 185.622 118.342 186.176 118.643C186.592 118.868 187.056 119.011 187.572 119.068C187.744 119.088 187.916 119.097 188.097 119.097C188.584 119.097 189.029 119.03 189.44 118.892C189.851 118.753 190.204 118.557 190.505 118.299C190.806 118.041 191.04 117.735 191.207 117.386L189.97 116.803C189.793 117.124 189.554 117.382 189.253 117.568C188.991 117.73 188.666 117.826 188.279 117.845C188.217 117.845 188.154 117.85 188.088 117.85C187.629 117.85 187.247 117.754 186.927 117.558C186.611 117.363 186.368 117.076 186.191 116.698C186.057 116.412 185.976 116.072 185.947 115.69H191.298C191.317 115.585 191.332 115.461 191.341 115.317C191.351 115.179 191.356 115.026 191.356 114.859C191.356 114.233 191.227 113.669 190.973 113.167L190.978 113.172ZM185.985 114.615C186.024 114.352 186.09 114.118 186.181 113.908C186.348 113.525 186.583 113.234 186.893 113.038C187.204 112.842 187.576 112.747 188.002 112.747C188.565 112.747 189.014 112.928 189.344 113.287C189.636 113.607 189.803 114.046 189.831 114.615H185.981H185.985ZM188.733 108.198H187.156L185.536 110.62H186.774L187.944 109.077L189.11 110.62H190.347L188.728 108.198H188.733ZM190.352 106.869H188.981L190.118 108.972H191.198L190.352 106.869Z" fill="#5F6368"/>
<path d="M204.428 112.689C204.174 112.288 203.845 111.992 203.434 111.8C203.028 111.604 202.588 111.509 202.125 111.509C201.805 111.509 201.48 111.561 201.145 111.662C200.816 111.762 200.515 111.92 200.242 112.135C199.97 112.35 199.755 112.618 199.602 112.938C199.378 112.46 199.048 112.101 198.604 111.863C198.159 111.624 197.677 111.504 197.151 111.504C196.673 111.504 196.224 111.614 195.804 111.839C195.383 112.063 195.044 112.407 194.791 112.876L194.719 111.652H193.334V118.944H194.896V115.064C194.896 114.519 194.992 114.084 195.187 113.75C195.383 113.42 195.627 113.177 195.918 113.019C196.21 112.861 196.501 112.785 196.793 112.785C197.232 112.785 197.591 112.914 197.873 113.177C198.154 113.439 198.298 113.869 198.298 114.462V118.939H199.86V114.973C199.86 114.495 199.946 114.094 200.123 113.769C200.3 113.444 200.529 113.196 200.816 113.033C201.102 112.866 201.418 112.785 201.757 112.785C202.196 112.785 202.555 112.914 202.837 113.177C203.119 113.439 203.262 113.869 203.262 114.462V118.939H204.824V114.214C204.824 113.588 204.695 113.081 204.442 112.68L204.428 112.689Z" fill="#5F6368"/>
<path d="M217.246 111.652L217.17 112.971C217.094 112.79 216.993 112.627 216.879 112.474C216.64 112.168 216.343 111.93 215.99 111.762C215.636 111.595 215.245 111.509 214.815 111.509C214.213 111.509 213.658 111.657 213.152 111.953C212.645 112.25 212.244 112.68 211.943 113.244C211.642 113.807 211.494 114.491 211.494 115.284C211.494 116.077 211.637 116.765 211.924 117.334C212.211 117.903 212.598 118.337 213.085 118.638C213.572 118.939 214.117 119.092 214.719 119.092C215.149 119.092 215.546 119.011 215.909 118.844C216.272 118.677 216.578 118.443 216.826 118.127C216.926 118.003 217.012 117.869 217.079 117.726V122.012H218.642V111.657H217.256L217.246 111.652ZM216.816 116.631C216.649 117.019 216.41 117.31 216.109 117.516C215.808 117.721 215.455 117.821 215.044 117.821C214.413 117.821 213.921 117.597 213.572 117.148C213.224 116.698 213.047 116.082 213.047 115.294C213.047 114.505 213.228 113.889 213.587 113.435C213.945 112.981 214.442 112.756 215.073 112.756C215.474 112.756 215.823 112.852 216.124 113.048C216.425 113.244 216.659 113.526 216.821 113.893C216.988 114.266 217.07 114.72 217.07 115.265C217.07 115.81 216.984 116.244 216.816 116.627V116.631Z" fill="#5F6368"/>
<path d="M226.071 111.652V115.604C226.071 115.982 226.019 116.311 225.918 116.593C225.818 116.875 225.675 117.109 225.488 117.286C225.302 117.468 225.096 117.597 224.867 117.683C224.638 117.769 224.404 117.807 224.16 117.807C223.654 117.807 223.262 117.683 222.98 117.434C222.698 117.186 222.559 116.732 222.559 116.072V111.652H220.997V116.464C220.997 117.085 221.117 117.592 221.36 117.979C221.604 118.371 221.924 118.653 222.33 118.825C222.731 119.002 223.176 119.088 223.649 119.088C224.232 119.088 224.738 118.982 225.168 118.767C225.593 118.552 225.937 118.218 226.186 117.759L226.262 118.939H227.633V111.648H226.071V111.652Z" fill="#5F6368"/>
<path d="M236.367 117.898C236.009 117.898 235.827 117.716 235.827 117.358V114.104C235.827 113.511 235.698 113.024 235.44 112.646C235.182 112.264 234.829 111.982 234.384 111.791C233.935 111.6 233.419 111.509 232.836 111.509C231.981 111.509 231.284 111.691 230.744 112.049C230.204 112.412 229.841 112.885 229.659 113.478L230.973 114.032C231.121 113.573 231.346 113.243 231.656 113.038C231.967 112.833 232.344 112.732 232.779 112.732C233.247 112.732 233.61 112.866 233.878 113.134C234.146 113.401 234.279 113.779 234.279 114.266V114.548L231.685 115.055C231.03 115.179 230.529 115.418 230.175 115.766C229.822 116.12 229.645 116.564 229.645 117.109C229.645 117.549 229.75 117.917 229.955 118.213C230.166 118.509 230.452 118.729 230.815 118.877C231.179 119.025 231.589 119.097 232.048 119.097C232.416 119.097 232.779 119.035 233.142 118.915C233.501 118.796 233.816 118.61 234.088 118.361C234.193 118.266 234.289 118.156 234.365 118.036C234.399 118.165 234.451 118.285 234.518 118.39C234.657 118.619 234.853 118.791 235.101 118.901C235.35 119.016 235.627 119.068 235.942 119.068C236.281 119.068 236.563 119.016 236.788 118.906L236.874 117.826C236.706 117.874 236.539 117.898 236.362 117.898H236.367ZM234.284 116.249C234.284 116.541 234.232 116.789 234.131 116.999C234.031 117.21 233.888 117.382 233.701 117.511C233.515 117.644 233.309 117.735 233.08 117.797C232.851 117.855 232.617 117.883 232.373 117.883C232.019 117.883 231.742 117.802 231.532 117.644C231.322 117.482 231.217 117.267 231.217 116.995C231.217 116.722 231.322 116.498 231.523 116.349C231.723 116.201 232.034 116.091 232.44 116.015L234.279 115.637V116.249H234.284ZM234.06 108.532C233.926 108.327 233.749 108.169 233.524 108.049C233.3 107.935 233.042 107.873 232.75 107.873C232.363 107.873 232.019 107.954 231.728 108.121C231.437 108.288 231.231 108.532 231.102 108.862L231.905 109.359C232 109.191 232.105 109.077 232.215 109C232.325 108.929 232.445 108.89 232.574 108.89C232.76 108.89 232.903 108.938 233.004 109.043C233.109 109.148 233.157 109.277 233.157 109.445C233.157 109.641 233.09 109.803 232.951 109.932C232.813 110.061 232.598 110.195 232.306 110.319L232.76 110.964C233.061 110.85 233.324 110.706 233.548 110.539C233.773 110.372 233.945 110.181 234.064 109.961C234.189 109.741 234.246 109.502 234.246 109.239C234.246 108.976 234.179 108.728 234.05 108.527L234.06 108.532Z" fill="#5F6368"/>
<path d="M244.681 112.704C244.437 112.302 244.112 112.006 243.696 111.805C243.285 111.604 242.817 111.504 242.301 111.504C241.905 111.504 241.527 111.566 241.169 111.695C240.815 111.824 240.51 112.025 240.252 112.302C240.084 112.479 239.946 112.689 239.831 112.923L239.764 111.652H238.379V118.944H239.941V115.064C239.941 114.51 240.041 114.07 240.242 113.736C240.443 113.406 240.691 113.162 240.992 113.014C241.293 112.861 241.608 112.79 241.929 112.79C242.378 112.79 242.75 112.928 243.042 113.205C243.338 113.482 243.486 113.979 243.486 114.701V118.949H245.048V114.223C245.048 113.607 244.929 113.105 244.685 112.704H244.681Z" fill="#5F6368"/>
<path d="M254.929 117.817C254.81 117.84 254.657 117.855 254.485 117.855C254.193 117.855 253.983 117.788 253.859 117.649C253.735 117.511 253.672 117.262 253.672 116.904V108.37H252.11V117.033C252.11 117.735 252.263 118.251 252.569 118.586C252.875 118.92 253.352 119.088 254.002 119.088C254.217 119.088 254.432 119.068 254.647 119.021C254.862 118.978 255.048 118.916 255.216 118.839L255.392 117.673C255.206 117.74 255.053 117.788 254.934 117.812L254.929 117.817Z" fill="#5F6368"/>
<path d="M261.164 111.652L259.63 116.101L259.148 117.606L258.727 116.235L257.108 111.657H255.359L257.633 117.186L258.407 118.997L258.087 119.785C257.92 120.206 257.734 120.483 257.523 120.626C257.313 120.77 257.079 120.836 256.816 120.836C256.573 120.836 256.348 120.798 256.138 120.722C255.928 120.645 255.732 120.526 255.545 120.368L255.168 121.577C255.392 121.735 255.65 121.859 255.947 121.95C256.243 122.041 256.568 122.088 256.917 122.088C257.342 122.088 257.719 122.017 258.039 121.869C258.359 121.72 258.646 121.486 258.89 121.157C259.138 120.827 259.368 120.378 259.583 119.814L262.779 111.662H261.159L261.164 111.652ZM259.358 108.178L258.293 110.63H259.487L260.93 108.178H259.358Z" fill="#5F6368"/>
<path d="M273.462 116.435C273.405 116.737 273.295 116.99 273.132 117.2C272.97 117.41 272.769 117.568 272.526 117.683C272.282 117.793 271.995 117.85 271.666 117.85C271.236 117.85 270.868 117.754 270.557 117.558C270.247 117.362 270.008 117.076 269.84 116.698C269.673 116.316 269.592 115.857 269.592 115.313C269.592 114.768 269.673 114.29 269.831 113.912C269.993 113.53 270.227 113.243 270.538 113.043C270.849 112.842 271.221 112.742 271.661 112.742C272.1 112.742 272.473 112.861 272.745 113.1C273.022 113.339 273.223 113.683 273.352 114.127L274.824 113.545C274.676 113.143 274.465 112.79 274.183 112.479C273.902 112.168 273.553 111.929 273.142 111.757C272.726 111.585 272.229 111.504 271.646 111.504C270.944 111.504 270.318 111.657 269.774 111.958C269.224 112.259 268.799 112.694 268.488 113.263C268.183 113.831 268.03 114.51 268.03 115.298C268.03 116.087 268.183 116.765 268.488 117.334C268.794 117.902 269.224 118.337 269.778 118.638C270.333 118.939 270.968 119.092 271.689 119.092C272.244 119.092 272.736 119.001 273.161 118.82C273.591 118.643 273.945 118.39 274.236 118.06C274.523 117.735 274.733 117.353 274.871 116.918L273.457 116.435H273.462Z" fill="#5F6368"/>
<path d="M283.022 113.263C282.717 112.694 282.291 112.259 281.747 111.958C281.202 111.657 280.576 111.504 279.864 111.504C279.152 111.504 278.527 111.657 277.982 111.958C277.437 112.259 277.007 112.694 276.697 113.263C276.386 113.831 276.228 114.51 276.228 115.298C276.228 116.087 276.386 116.765 276.697 117.334C277.007 117.903 277.437 118.337 277.982 118.638C278.527 118.939 279.152 119.092 279.864 119.092C280.576 119.092 281.202 118.939 281.747 118.638C282.291 118.337 282.717 117.903 283.022 117.334C283.328 116.765 283.481 116.087 283.481 115.298C283.481 114.51 283.328 113.831 283.022 113.263ZM281.67 116.694C281.503 117.076 281.269 117.367 280.968 117.568C280.667 117.769 280.294 117.869 279.86 117.869C279.425 117.869 279.052 117.769 278.746 117.568C278.44 117.367 278.202 117.076 278.039 116.694C277.872 116.311 277.791 115.843 277.791 115.298C277.791 114.754 277.872 114.276 278.039 113.898C278.206 113.521 278.44 113.229 278.746 113.029C279.052 112.828 279.425 112.728 279.86 112.728C280.294 112.728 280.667 112.828 280.968 113.029C281.269 113.229 281.503 113.516 281.67 113.898C281.838 114.28 281.919 114.744 281.919 115.298C281.919 115.853 281.838 116.307 281.67 116.694ZM280.681 108.15H279.047L277.399 110.615H278.684L279.864 109.053L281.044 110.615H282.33L280.681 108.15Z" fill="#5F6368"/>
<path d="M291.751 112.704C291.508 112.302 291.183 112.006 290.767 111.805C290.356 111.604 289.888 111.504 289.377 111.504C288.976 111.504 288.598 111.566 288.245 111.695C287.886 111.824 287.58 112.025 287.327 112.302C287.16 112.479 287.021 112.689 286.907 112.923L286.84 111.652H285.454V118.944H287.017V115.064C287.017 114.51 287.117 114.07 287.318 113.736C287.518 113.406 287.767 113.162 288.068 113.014C288.369 112.861 288.679 112.79 288.999 112.79C289.449 112.79 289.821 112.928 290.113 113.205C290.409 113.482 290.557 113.979 290.557 114.701V118.949H292.119V114.223C292.119 113.607 292 113.105 291.756 112.704H291.751Z" fill="#5F6368"/>
<path d="M300.309 118.299C299.902 117.974 299.329 117.812 298.589 117.812H296.4C296.071 117.812 295.813 117.754 295.636 117.635C295.454 117.52 295.363 117.339 295.363 117.095C295.363 116.889 295.454 116.703 295.641 116.541C295.746 116.45 295.884 116.378 296.071 116.326C296.219 116.283 296.391 116.249 296.587 116.235H296.763L295.946 115.843C295.664 115.867 295.416 115.919 295.196 116.001C294.957 116.087 294.757 116.206 294.589 116.354C294.269 116.646 294.107 116.999 294.107 117.42C294.107 117.84 294.231 118.16 294.48 118.39C294.618 118.519 294.781 118.624 294.976 118.71C294.613 118.791 294.331 118.93 294.145 119.131C293.868 119.422 293.729 119.761 293.729 120.153C293.729 120.707 294.016 121.171 294.589 121.539C295.163 121.912 296.047 122.093 297.246 122.093C297.958 122.093 298.584 121.998 299.138 121.802C299.687 121.606 300.122 121.329 300.442 120.961C300.762 120.593 300.925 120.163 300.925 119.656C300.925 119.083 300.719 118.634 300.309 118.309V118.299ZM299.343 120.368C299.171 120.531 298.913 120.66 298.569 120.76C298.225 120.86 297.786 120.913 297.251 120.913C296.563 120.913 296.023 120.822 295.631 120.636C295.239 120.449 295.048 120.196 295.048 119.876C295.048 119.632 295.139 119.441 295.325 119.298C295.512 119.159 295.741 119.087 296.008 119.087H298.359C298.827 119.087 299.148 119.154 299.329 119.293C299.511 119.432 299.601 119.608 299.601 119.833C299.601 120.029 299.515 120.206 299.348 120.363L299.343 120.368ZM299.955 112.675C299.845 112.517 299.711 112.374 299.563 112.245C299.367 112.078 299.133 111.934 298.861 111.815C298.842 111.805 298.823 111.8 298.804 111.791C298.345 111.6 297.805 111.509 297.189 111.509C296.572 111.509 296.018 111.609 295.55 111.815C295.077 112.02 294.709 112.302 294.446 112.675C294.183 113.048 294.054 113.478 294.054 113.975C294.054 114.715 294.327 115.313 294.867 115.762C294.972 115.848 295.082 115.929 295.206 115.996C295.459 116.144 295.75 116.254 296.075 116.326C296.41 116.402 296.783 116.44 297.193 116.44C297.834 116.44 298.393 116.34 298.861 116.134C299.334 115.929 299.697 115.642 299.955 115.274C300.213 114.902 300.342 114.472 300.342 113.975C300.342 113.478 300.213 113.048 299.955 112.675ZM298.321 114.978C298.025 115.231 297.647 115.356 297.189 115.356C296.73 115.356 296.367 115.231 296.075 114.978C295.779 114.725 295.631 114.39 295.631 113.97C295.631 113.549 295.779 113.22 296.075 112.971C296.372 112.723 296.744 112.598 297.189 112.598C297.633 112.598 298.02 112.723 298.321 112.971C298.617 113.22 298.765 113.554 298.765 113.97C298.765 114.386 298.617 114.725 298.321 114.978ZM300.896 110.118H300.782C300.39 110.118 300.046 110.204 299.735 110.381C299.429 110.558 299.195 110.797 299.028 111.103C298.913 111.313 298.842 111.542 298.804 111.786C298.784 111.901 298.78 112.02 298.78 112.144L299.539 112.498C299.539 112.407 299.549 112.321 299.558 112.24C299.601 111.987 299.716 111.781 299.902 111.628C300.146 111.428 300.5 111.327 300.968 111.327C300.997 111.327 301.025 111.327 301.054 111.337C301.083 111.337 301.111 111.342 301.14 111.342L300.891 110.118H300.896Z" fill="#5F6368"/>
<path d="M311.541 111.652L309.425 117.587L307.356 111.652H305.65L308.569 118.944H310.275L313.18 111.652H311.546H311.541Z" fill="#5F6368"/>
<path d="M316.056 108.733C315.875 108.565 315.621 108.484 315.292 108.484C314.962 108.484 314.69 108.565 314.513 108.733C314.331 108.9 314.245 109.134 314.245 109.445C314.245 109.755 314.331 109.999 314.513 110.166C314.694 110.333 314.952 110.42 315.292 110.42C315.631 110.42 315.879 110.333 316.056 110.166C316.233 109.994 316.324 109.755 316.324 109.445C316.324 109.134 316.233 108.895 316.056 108.733ZM314.503 111.652V118.944H316.066V111.652H314.503Z" fill="#5F6368"/>
<path d="M324.565 113.138C324.303 112.632 323.925 112.235 323.428 111.944C322.931 111.652 322.329 111.504 321.622 111.504C320.915 111.504 320.313 111.657 319.769 111.958C319.224 112.259 318.799 112.694 318.493 113.263C318.187 113.831 318.034 114.51 318.034 115.298C318.034 116.087 318.187 116.765 318.493 117.334C318.799 117.903 319.229 118.337 319.783 118.638C320.337 118.939 320.977 119.092 321.708 119.092C322.196 119.092 322.64 119.025 323.051 118.887C323.462 118.748 323.811 118.552 324.107 118.294C324.403 118.036 324.637 117.731 324.814 117.382L323.576 116.799C323.4 117.128 323.166 117.386 322.865 117.573C322.564 117.759 322.172 117.85 321.684 117.85C321.245 117.85 320.867 117.754 320.547 117.558C320.227 117.363 319.979 117.076 319.802 116.698C319.678 116.426 319.597 116.115 319.563 115.762H324.909C324.929 115.647 324.943 115.509 324.952 115.351C324.962 115.193 324.967 115.031 324.967 114.854C324.967 114.214 324.838 113.64 324.575 113.134L324.565 113.138ZM319.592 114.572C319.635 114.328 319.697 114.104 319.783 113.908C319.95 113.526 320.184 113.234 320.5 113.038C320.81 112.842 321.173 112.747 321.594 112.747C322.167 112.747 322.621 112.923 322.951 113.277C323.242 113.588 323.404 114.018 323.438 114.567H319.592V114.572ZM322.368 108.15H320.734L319.085 110.615H320.371L321.551 109.053L322.731 110.615H324.016L322.368 108.15ZM322.401 120.459C322.224 120.287 321.971 120.206 321.651 120.206C321.331 120.206 321.097 120.292 320.915 120.459C320.738 120.626 320.648 120.865 320.648 121.166C320.648 121.467 320.738 121.692 320.915 121.869C321.097 122.045 321.34 122.131 321.651 122.131C321.962 122.131 322.224 122.045 322.401 121.869C322.583 121.692 322.673 121.458 322.673 121.166C322.673 120.875 322.583 120.631 322.401 120.459Z" fill="#5F6368"/>
<path d="M331.89 116.435C331.832 116.737 331.723 116.99 331.56 117.2C331.402 117.41 331.197 117.568 330.953 117.683C330.71 117.793 330.423 117.85 330.093 117.85C329.663 117.85 329.295 117.754 328.985 117.558C328.674 117.362 328.435 117.076 328.268 116.698C328.101 116.316 328.02 115.857 328.02 115.313C328.02 114.768 328.101 114.29 328.263 113.912C328.421 113.53 328.66 113.243 328.971 113.043C329.281 112.842 329.654 112.742 330.093 112.742C330.533 112.742 330.905 112.861 331.183 113.1C331.46 113.339 331.66 113.683 331.789 114.127L333.261 113.545C333.113 113.143 332.898 112.79 332.616 112.479C332.334 112.168 331.985 111.929 331.574 111.757C331.159 111.585 330.662 111.504 330.079 111.504C329.377 111.504 328.751 111.657 328.206 111.958C327.657 112.259 327.231 112.694 326.921 113.263C326.615 113.831 326.462 114.51 326.462 115.298C326.462 116.087 326.615 116.765 326.921 117.334C327.227 117.902 327.657 118.337 328.211 118.638C328.765 118.939 329.4 119.092 330.122 119.092C330.676 119.092 331.168 119.001 331.594 118.82C332.024 118.643 332.377 118.39 332.669 118.06C332.955 117.735 333.165 117.353 333.304 116.918L331.89 116.435Z" fill="#5F6368"/>
<path d="M344.823 116.435C344.766 116.737 344.656 116.99 344.494 117.2C344.336 117.41 344.131 117.568 343.887 117.683C343.643 117.793 343.357 117.85 343.027 117.85C342.597 117.85 342.229 117.754 341.918 117.558C341.608 117.362 341.369 117.076 341.207 116.698C341.039 116.316 340.958 115.857 340.958 115.313C340.958 114.768 341.039 114.29 341.202 113.912C341.359 113.53 341.598 113.243 341.909 113.043C342.219 112.842 342.597 112.742 343.032 112.742C343.466 112.742 343.839 112.861 344.116 113.1C344.393 113.339 344.594 113.683 344.723 114.127L346.195 113.545C346.046 113.143 345.831 112.79 345.55 112.479C345.268 112.168 344.919 111.929 344.508 111.757C344.097 111.585 343.595 111.504 343.013 111.504C342.31 111.504 341.689 111.657 341.14 111.958C340.59 112.259 340.165 112.694 339.859 113.263C339.553 113.831 339.401 114.51 339.401 115.298C339.401 116.087 339.553 116.765 339.859 117.334C340.165 117.902 340.595 118.337 341.149 118.638C341.703 118.939 342.339 119.092 343.06 119.092C343.615 119.092 344.107 119.001 344.532 118.82C344.962 118.643 345.315 118.39 345.607 118.06C345.894 117.735 346.104 117.353 346.242 116.918L344.828 116.435H344.823Z" fill="#5F6368"/>
<path d="M354.365 112.704C354.121 112.302 353.791 112.006 353.38 111.805C352.965 111.605 352.501 111.504 351.985 111.504C351.469 111.504 351.02 111.609 350.609 111.815C350.194 112.025 349.869 112.359 349.625 112.813V108.365H348.063V118.939H349.625V115.088C349.625 114.524 349.725 114.075 349.926 113.74C350.122 113.406 350.375 113.162 350.686 113.009C350.991 112.856 351.302 112.785 351.613 112.785C352.062 112.785 352.434 112.923 352.731 113.205C353.027 113.487 353.175 113.989 353.175 114.71V118.939H354.737V114.214C354.737 113.597 354.613 113.095 354.374 112.694L354.365 112.704Z" fill="#5F6368"/>
<path d="M363.414 113.263C363.108 112.694 362.683 112.259 362.138 111.958C361.593 111.657 360.967 111.504 360.256 111.504C359.544 111.504 358.918 111.657 358.373 111.958C357.828 112.259 357.398 112.694 357.088 113.263C356.777 113.831 356.62 114.51 356.62 115.298C356.62 116.087 356.777 116.765 357.088 117.334C357.398 117.902 357.828 118.337 358.373 118.638C358.918 118.939 359.544 119.092 360.256 119.092C360.967 119.092 361.593 118.939 362.138 118.638C362.683 118.337 363.108 117.902 363.414 117.334C363.719 116.765 363.872 116.087 363.872 115.298C363.872 114.51 363.719 113.831 363.414 113.263ZM362.066 116.693C361.899 117.076 361.67 117.367 361.369 117.568C361.068 117.769 360.695 117.869 360.26 117.869C359.826 117.869 359.448 117.769 359.147 117.568C358.841 117.367 358.602 117.076 358.44 116.693C358.273 116.311 358.192 115.843 358.192 115.298C358.192 114.753 358.273 114.276 358.44 113.898C358.607 113.521 358.841 113.229 359.147 113.028C359.453 112.828 359.826 112.727 360.26 112.727C360.695 112.727 361.068 112.828 361.369 113.028C361.67 113.229 361.904 113.516 362.066 113.898C362.234 114.28 362.315 114.744 362.315 115.298C362.315 115.853 362.234 116.306 362.066 116.693Z" fill="#5F6368"/>
<path d="M377.394 114.601C377.002 114.18 376.342 113.87 375.411 113.669L373.457 113.229C372.883 113.1 372.492 112.928 372.281 112.704C372.071 112.479 371.971 112.216 371.971 111.915C371.971 111.652 372.038 111.418 372.181 111.208C372.319 110.998 372.544 110.83 372.845 110.706C373.146 110.582 373.528 110.515 373.997 110.515C374.627 110.515 375.177 110.639 375.635 110.888C376.099 111.136 376.514 111.542 376.882 112.106L377.933 111.098C377.494 110.467 376.959 109.985 376.328 109.665C375.697 109.34 374.947 109.177 374.083 109.177C373.304 109.177 372.635 109.311 372.071 109.579C371.507 109.846 371.077 110.2 370.781 110.644C370.485 111.084 370.337 111.581 370.337 112.125C370.337 112.546 370.427 112.919 370.614 113.258C370.8 113.597 371.082 113.879 371.46 114.113C371.837 114.347 372.319 114.524 372.902 114.653L375.019 115.136C375.535 115.25 375.889 115.418 376.075 115.633C376.266 115.848 376.357 116.096 376.357 116.378C376.357 116.66 376.271 116.918 376.104 117.128C375.936 117.339 375.683 117.496 375.363 117.601C375.038 117.707 374.651 117.764 374.202 117.764C373.696 117.764 373.237 117.692 372.821 117.544C372.41 117.396 372.047 117.191 371.737 116.923C371.426 116.655 371.168 116.35 370.963 116.01L369.883 117.09C370.146 117.482 370.48 117.826 370.886 118.127C371.297 118.428 371.77 118.667 372.315 118.839C372.859 119.016 373.471 119.102 374.154 119.102C374.923 119.102 375.588 118.982 376.161 118.753C376.729 118.519 377.174 118.184 377.494 117.745C377.814 117.305 377.976 116.794 377.976 116.201C377.976 115.556 377.781 115.031 377.394 114.61V114.601Z" fill="#5F6368"/>
<path d="M387.737 109.32L385.812 114.892L385.129 117.181H385.1L384.426 114.892L382.487 109.32H380.169V118.949H381.612V113.377L381.498 110.721H381.512L384.446 118.949H385.745L388.679 110.721H388.693L388.578 113.377V118.949H390.021V109.32H387.747H387.737Z" fill="#5F6368"/>
<path d="M394.431 117.606V114.744H398.66V113.43H394.431V110.658H399.84V109.316H392.869V118.944H400.045V117.601H394.431V117.606Z" fill="#5F6368"/>
<path d="M407.317 115.556C407.03 115.231 406.538 115.002 405.836 114.863L404.173 114.515C403.796 114.438 403.533 114.324 403.385 114.18C403.237 114.032 403.165 113.865 403.165 113.669C403.165 113.473 403.222 113.325 403.342 113.186C403.461 113.048 403.628 112.943 403.853 112.866C404.078 112.79 404.345 112.751 404.656 112.751C405.047 112.751 405.42 112.847 405.778 113.033C406.142 113.224 406.414 113.511 406.595 113.903L407.675 113C407.403 112.522 407.011 112.159 406.495 111.896C405.979 111.638 405.358 111.509 404.627 111.509C403.992 111.509 403.452 111.614 402.998 111.82C402.549 112.03 402.205 112.302 401.971 112.646C401.736 112.986 401.617 113.358 401.617 113.755C401.617 114.29 401.784 114.73 402.114 115.074C402.444 115.418 402.998 115.671 403.777 115.824L405.31 116.144C405.649 116.221 405.884 116.33 406.003 116.474C406.122 116.612 406.185 116.775 406.185 116.961C406.185 117.243 406.056 117.463 405.793 117.616C405.53 117.769 405.176 117.85 404.727 117.85C404.164 117.85 403.681 117.731 403.275 117.492C402.874 117.253 402.563 116.937 402.348 116.536L401.268 117.468C401.617 117.984 402.095 118.385 402.697 118.667C403.299 118.949 403.968 119.088 404.694 119.088C405.325 119.088 405.869 118.992 406.328 118.796C406.787 118.6 407.135 118.328 407.379 117.974C407.623 117.621 407.742 117.21 407.742 116.741C407.742 116.273 407.599 115.881 407.312 115.552L407.317 115.556Z" fill="#5F6368"/>
<path d="M151.155 43.6173H136.874L137.362 41.2377C138.47 35.8524 141.471 33.1622 146.373 33.1622C148.059 33.1622 149.54 33.468 150.811 34.0748L160.529 24.3364C159.277 23.3712 156.224 21.7322 154.16 21.2114C152.092 20.6953 149.851 20.4373 147.438 20.4373C140.611 20.4373 134.93 22.3008 130.405 26.028C125.881 29.7552 122.961 34.7916 121.657 41.1373L109.765 98.8558H125.905L134.729 56.0412H148.594L151.15 43.6221L151.155 43.6173Z" fill="#5F6368"/>
<path d="M199.115 42.375L197.901 48.2763C194.824 43.7942 189.731 41.5483 182.627 41.5483C177.381 41.5483 172.397 42.7238 167.672 45.0653C162.947 47.4115 158.929 50.7611 155.622 55.1047C152.311 59.453 150.071 64.4895 148.891 70.214C147.71 75.9386 147.882 80.975 149.402 85.3234C150.921 89.6717 153.558 93.0214 157.319 95.3628C161.079 97.709 165.579 98.8845 170.825 98.8845C178.413 98.8845 184.705 96.4714 189.698 91.6404L188.374 98.0578H203.792L215.254 42.3798H199.11L199.115 42.375ZM193.692 70.2188C192.727 74.9112 190.61 78.6527 187.347 81.4481C184.079 84.2387 180.414 85.6388 176.344 85.6388C172.273 85.6388 169.077 84.2387 166.965 81.4481C164.848 78.6527 164.275 74.9112 165.24 70.2188C166.205 65.5312 168.322 61.7849 171.59 58.9895C174.858 56.1942 178.556 54.7989 182.698 54.7989C186.841 54.7989 189.86 56.199 191.977 58.9895C194.093 61.7849 194.667 65.5312 193.702 70.2188H193.692Z" fill="#5F6368"/>
<path d="M241.484 55.2098C242.382 54.7558 243.453 54.4118 244.685 54.1729C246.09 53.8957 247.71 53.7619 249.544 53.7619C250.82 53.7619 252.062 53.8288 253.266 53.9674C256.544 54.3306 259.559 55.1907 262.311 56.543L272.449 46.4032C270.352 44.9888 267.604 43.8611 264.217 43.0153C263.992 42.9579 263.763 42.9054 263.534 42.8528C260.595 42.1695 257.59 41.7586 254.523 41.6152C253.706 41.5722 252.884 41.5579 252.058 41.5579C246.745 41.5579 241.986 42.3176 237.777 43.8372C233.567 45.3567 230.166 47.4735 227.566 50.202C224.967 52.9257 223.314 56.046 222.588 59.5677C221.718 63.7775 222.139 67.0172 223.845 69.2965C225.311 71.2557 227.179 72.7083 229.444 73.6449C229.807 73.7978 230.19 73.9364 230.572 74.0606C231.202 74.2661 231.876 74.462 232.593 74.6579C235.029 75.3173 237.949 75.9099 241.36 76.4403C241.68 76.4833 241.995 76.5263 242.301 76.5645C244.642 76.8894 246.544 77.2622 248.016 77.6731C248.613 77.8403 249.129 78.0171 249.583 78.1987C251.303 78.8868 252 80.0241 251.675 81.6153C250.997 84.9028 247.428 86.5896 240.963 86.6804C240.772 86.6804 240.581 86.6804 240.385 86.6804C237.906 86.6804 235.436 86.408 232.989 85.8681C232.105 85.6722 231.222 85.4428 230.347 85.18C228.126 84.511 226.167 83.7082 224.466 82.7717L214.423 92.8207L214.375 92.8923C216.3 94.3593 218.909 95.6065 222.215 96.6482C222.803 96.8345 223.415 97.0113 224.05 97.1881C226.501 97.8571 229.024 98.3254 231.628 98.6026C233.467 98.7985 235.34 98.894 237.251 98.894C242.698 98.894 247.562 98.1486 251.838 96.6673C256.104 95.186 259.554 93.0978 262.177 90.4076C264.805 87.7173 266.467 84.6448 267.179 81.1948C268.02 77.1236 267.6 73.9507 265.932 71.6714C264.26 69.3921 262.062 67.8248 259.348 66.9599C258.608 66.7258 257.805 66.4964 256.94 66.2718C255.861 65.9851 254.69 65.7079 253.419 65.4404C251.962 65.1298 250.38 64.8287 248.675 64.5325C246.73 64.2266 245.058 63.9113 243.653 63.5911C242.21 63.2566 241.054 62.9174 240.18 62.5685C239.602 62.3344 239.143 62.0477 238.799 61.7036C238.116 61.0156 237.896 60.0933 238.13 58.9465C238.441 57.427 239.559 56.1846 241.484 55.2193V55.2098Z" fill="#5F6368"/>
<path d="M314.441 43.6173V43.6364L311.942 46.126H311.899L311.517 46.5082H297.714L295.98 48.2428L295.856 48.367H309.706L307.967 50.1064H307.939L306.792 51.258H292.965L291.106 53.1168H304.957L302.038 56.0364H298.125L297.112 60.9677L293.462 78.7004C292.979 81.0466 293.194 82.8624 294.102 84.1335C295.015 85.4093 296.568 86.0496 298.78 86.0496C301.264 86.0496 303.615 85.3615 305.832 83.9758L307.728 95.3627C305.903 96.5382 303.772 97.4174 301.341 98.0004C298.909 98.5834 296.448 98.8796 293.968 98.8796C287.279 98.8796 282.483 97.1881 279.597 93.805C278.785 92.8588 278.144 91.7885 277.667 90.5986C276.644 88.0374 276.381 84.9028 276.888 81.1947C276.988 80.4541 277.122 79.6895 277.28 78.9011L280.376 63.8491L286.955 31.8911L287.332 30.0562H303.476L300.7 43.5217L300.681 43.6125H314.446L314.441 43.6173Z" fill="#5F6368"/>
<path d="M370.886 21.2639L365.325 48.2763C362.248 43.7941 357.155 41.5483 350.05 41.5483C344.809 41.5483 339.821 42.7238 335.1 45.0652C330.37 47.4114 326.357 50.7611 323.046 55.1046C319.735 59.453 317.494 64.4894 316.314 70.214C315.134 75.9385 315.306 80.975 316.83 85.3233C318.349 89.6717 320.987 93.0213 324.747 95.3628C328.507 97.709 333.013 98.8845 338.254 98.8845C345.841 98.8845 352.133 96.4714 357.126 91.6404L355.807 98.0578H371.225L387.03 21.2639H370.886ZM361.12 70.2187C360.155 74.9111 358.039 78.6526 354.775 81.448C351.507 84.2386 347.843 85.6387 343.772 85.6387C339.701 85.6387 336.505 84.2386 334.389 81.448C332.272 78.6526 331.699 74.9111 332.664 70.2187C333.629 65.5311 335.745 61.7849 339.013 58.9895C342.281 56.1941 345.979 54.7988 350.122 54.7988C354.264 54.7988 357.284 56.1989 359.4 58.9895C361.517 61.7849 362.09 65.5311 361.125 70.2187H361.12Z" fill="#FCD42C"/>
<path d="M447.986 55.4153C446.261 51.0669 443.337 47.6695 439.218 45.2229C435.1 42.7716 430.107 41.5483 424.245 41.5483C418.382 41.5483 412.869 42.7764 407.709 45.2229C402.544 47.6695 398.206 51.0669 394.694 55.4153C391.173 59.7637 388.851 64.695 387.714 70.214C386.576 75.7331 386.873 80.6692 388.602 85.0128C390.327 89.3564 393.27 92.7586 397.422 95.2051C401.574 97.6565 406.581 98.8797 412.448 98.8797C418.315 98.8797 423.81 97.6517 428.932 95.2051C434.058 92.7586 438.377 89.3564 441.894 85.0128C445.41 80.6644 447.737 75.7331 448.874 70.214C450.011 64.695 449.715 59.7589 447.986 55.4153ZM432.52 70.2188C431.555 74.9112 429.452 78.6527 426.227 81.4481C422.993 84.2387 419.314 85.6388 415.172 85.6388C411.029 85.6388 407.9 84.2387 405.788 81.4481C403.671 78.6527 403.098 74.9112 404.063 70.2188C405.028 65.5312 407.145 61.7849 410.408 58.9895C413.676 56.1942 417.379 54.7989 421.516 54.7989C425.654 54.7989 428.764 56.199 430.848 58.9895C432.926 61.7849 433.49 65.5312 432.52 70.2188Z" fill="#FCD42C"/>
</g>
<defs>
<clipPath id="clip0_5007_4792">
<rect width="449.551" height="140.433" fill="white"/>
</clipPath>
</defs>
</svg>
